<svg width="200" height="54" fill="none" xmlns="http://www.w3.org/2000/svg"><path d="M29.84-.06a14.89 14.89 0 016.97 6.964c.962 1.944 1.467 4.1 1.61 6.26 0 .99.022 1.979-.018 2.967-.402 4.596-2.224 8.965-4.742 12.779-3.07 4.628-7.112 8.568-11.675 11.68-1.036.607-1.996 1.488-3.24 1.589-1.843.243-3.912-.52-4.886-2.171l-.019.106c-.712-.892-1.61-1.63-2.223-2.601-.672-.72-1.378-1.412-1.996-2.184-.396-.495-.96-.795-1.528-1.043-.688.222-1.016.96-.991 1.648-.006 4.831.001 9.663-.003 14.494.046.602-.417 1.1-.955 1.278-.988.354-2.09.206-3.07-.113-1.1-.317-1.846-1.302-2.35-2.285a8.45 8.45 0 01-.902-4.035c.003-9.299 0-18.597.002-27.895.003-.636.04-1.418.62-1.808.406-.036.878-.08 1.19.243.776.712 1.487 1.5 2.178 2.296 4.344 4.76 8.652 9.555 13.002 14.309.622.551 1.036 1.343 1.747 1.778 3.577-2.236 6.823-5.01 9.648-8.16 3.014-3.439 5.58-7.407 6.81-11.869.745-2.718.915-5.687-.04-8.377A10.094 10.094 0 0031.238.845c-.435-.35-.958-.563-1.397-.904z" fill="#0091FF"/><path d="M29.84-.06a14.89 14.89 0 016.97 6.964c.962 1.944 1.467 4.1 1.61 6.26 0 .99.022 1.979-.018 2.967-.402 4.596-2.224 8.965-4.742 12.779-3.07 4.628-7.112 8.568-11.675 11.68-1.036.607-1.996 1.488-3.24 1.589-1.843.243-3.912-.52-4.886-2.171l-.019.106c-.712-.892-1.61-1.63-2.223-2.601-.672-.72-1.378-1.412-1.996-2.184-.396-.495-.96-.795-1.528-1.043-.688.222-1.016.96-.991 1.648-.006 4.831.001 9.663-.003 14.494.046.602-.417 1.1-.955 1.278-.988.354-2.09.206-3.07-.113-1.1-.317-1.846-1.302-2.35-2.285a8.45 8.45 0 01-.902-4.035c.003-9.299 0-18.597.002-27.895.003-.636.04-1.418.62-1.808.406-.036.878-.08 1.19.243.776.712 1.487 1.5 2.178 2.296 4.344 4.76 8.652 9.555 13.002 14.309.622.551 1.036 1.343 1.747 1.778 3.577-2.236 6.823-5.01 9.648-8.16 3.014-3.439 5.58-7.407 6.81-11.869.745-2.718.915-5.687-.04-8.377A10.094 10.094 0 0031.238.845c-.435-.35-.958-.563-1.397-.904z" fill="url(#paint0_linear)"/><path d="M37.93 23.004c.224-.698.276-1.479.726-2.08.358.451.23 1.056.252 1.59-.202 3.194-.773 6.383-1.884 9.388-1.48 3.856-4.002 7.203-6.762 10.213a44.59 44.59 0 01-9.017 7.25c-3.622 2.153-7.587 3.636-11.603 4.832-.145-3.695-.032-7.399-.072-11.097.024-.69-.031-1.529.55-2.02.475-.392 1.106-.057 1.526.254.8.655 1.393 1.528 2.154 2.226 1.403 1.198 3.469 1.599 5.183.89 5.277-2.999 10.08-6.934 13.81-11.774 2.219-2.906 4.103-6.134 5.137-9.672zm37.55 9.153c1.49-.53 3.342-.422 4.56.683.787.786 1.117 1.89 1.43 2.93 1.505 4.88 3.01 9.76 4.51 14.64-.79.255-1.618.361-2.407.617a2.39 2.39 0 01-.274-.62c-.55-1.864-1.198-3.7-1.718-5.572a278.41 278.41 0 00-8.837.006c-.433 1.593-.975 3.154-1.446 4.736-.17.485-.263 1.001-.508 1.456-.773-.294-1.628-.312-2.373-.676 1.67-5.207 3.25-10.444 4.91-15.654.346-1.09 1.04-2.153 2.152-2.546zm.456 2.684c-.441.954-.634 2.002-1.007 2.983-.469 1.607-1.008 3.192-1.481 4.8 2.477.008 4.954.004 7.432 0-.715-2.348-1.45-4.69-2.172-7.036-.176-.524-.376-1.138-.908-1.392-.66-.347-1.57-.06-1.864.645z" fill="#fff"/><path d="M190.687 31.964c1.214-.071 2.442.02 3.623.324 1.631.485 3.139 1.504 4.083 2.95 1.265 1.829 1.637 4.112 1.703 6.296-.095.625-.112 1.256-.136 1.887-.248 1.652-.781 3.298-1.783 4.646-.646.803-1.4 1.535-2.305 2.032-1.724.992-3.79 1.179-5.727.954-2.364-.25-4.639-1.631-5.785-3.767-.547-.955-.885-2.016-1.09-3.096-.197-.733-.092-1.501-.259-2.24-.051-1.805.253-3.638.964-5.298.987-2.3 3.109-4.09 5.565-4.53.383-.033.763-.103 1.147-.158zm-.479 2.134c-2.029.428-3.586 2.162-4.132 4.14-.515 1.514-.499 3.129-.416 4.708.22 1.557.678 3.156 1.739 4.35 1.025 1.187 2.593 1.887 4.155 1.798 1.748.097 3.499-.796 4.501-2.24.814-1.148 1.211-2.544 1.365-3.935.185-1.727.063-3.517-.552-5.152-.461-1.238-1.275-2.379-2.424-3.043-1.262-.771-2.813-.907-4.236-.626zm-19.843-2.012c.826-.014 1.652-.002 2.48-.01-.034.833-.012 1.667-.015 2.499 1.465.056 2.94.388 4.26 1.049 1.538.771 2.739 2.205 3.177 3.891.253.703.048 1.464.222 2.18-.039 1.045-.196 2.122-.732 3.04-1.269 2.436-4.12 3.585-6.727 3.616l-.2.165c-.009.82-.003 1.64.008 2.46-.788-.01-1.576-.02-2.364.009-.212-.865-.003-1.77-.123-2.648-1.437.057-2.874-.335-4.166-.95-1.769-.861-3.12-2.608-3.384-4.59a9.96 9.96 0 00-.129-1.266 17.74 17.74 0 00.146-1.528c.309-1.566 1.201-3.039 2.538-3.916 1.465-1.018 3.267-1.439 5.021-1.5.008-.834.023-1.667-.012-2.501zm-3.913 6.049c-1.509 1.599-1.716 4.234-.504 6.069.951 1.45 2.738 2.161 4.42 2.111-.022-3.23-.009-6.461-.006-9.69-1.411.048-2.885.489-3.91 1.51zm6.372-1.51c.007 3.232.007 6.464 0 9.697 1.538.032 3.145-.543 4.156-1.752 1.514-1.853 1.389-4.836-.313-6.527-1.044-.945-2.462-1.39-3.843-1.417z" fill="#0091FF"/><path d="M48.906 32.184c.837.002 1.674.005 2.511-.003 1.8 3.081 3.54 6.198 5.331 9.286.208.302.42.724.837.735.47.064.74-.424.975-.755 1.791-3.08 3.509-6.207 5.319-9.275.82.037 1.643-.02 2.463.037.017 6.17-.01 12.342.014 18.512-.86.027-1.719.007-2.578.011-.004-4.585.023-9.17-.014-13.755-.894 1.413-1.655 2.913-2.502 4.357-.621 1.066-1.145 2.255-2.161 3.008-.977.699-2.424.593-3.3-.229-.858-.746-1.302-1.823-1.877-2.78-.843-1.444-1.599-2.943-2.491-4.355-.028 4.585-.003 9.17-.013 13.756-.841 0-1.683-.005-2.525 0-.006-6.183-.03-12.367.01-18.55zm39.201 0c2.37.005 4.74-.002 7.11.003 1.322.09 2.699.355 3.782 1.177 1.214.868 1.906 2.33 2.058 3.801.041 1.15.071 2.358-.497 3.4-.986 2.082-3.28 3.27-5.504 3.314-1.476.004-2.953-.03-4.426.024.037 2.277.007 4.555.015 6.834-.846-.008-1.691-.005-2.536-.002 0-6.182.006-12.367-.002-18.551zm2.54 2.102c.001 2.497-.004 4.994.001 7.49 1.212.01 2.425 0 3.639.007.994-.008 2.04-.184 2.848-.813 1.467-1.13 1.596-3.333.885-4.933-.45-1.043-1.578-1.604-2.659-1.665-1.568-.15-3.144-.082-4.714-.086zm11.501-2.096c4.776-.006 9.552-.012 14.329.003.003.722.005 1.445-.001 2.168-1.96.016-3.921 0-5.88.01-.005 5.453-.006 10.906.001 16.36-.866.008-1.732-.005-2.599.004-.006-5.454.013-10.91-.008-16.364-1.948-.011-3.897.008-5.844-.01a71.417 71.417 0 01.002-2.17z" fill="#fff"/><path d="M127.16 32.25a44.89 44.89 0 002.378-.004c-.01 3.98 0 7.961-.006 11.94-.007.367-.009.734.048 1.1 1.258-1.215 2.351-2.618 3.538-3.911 1.933-2.171 3.828-4.377 5.792-6.521-.006-.867.006-1.733-.011-2.6.785.008 1.57.02 2.355-.008.075.23.111.473.103.717-.012 2.913.001 5.828-.006 8.742-.19.976.143 1.964-.037 2.952-.026 2.003.111 4.024.009 6.04-.811-.029-1.622-.012-2.431-.01.031-4.242.02-8.486.004-12.729-.599.454-.975 1.126-1.517 1.64-2.614 2.982-5.268 5.927-7.856 8.932.023.722-.006 1.443.028 2.165a49.28 49.28 0 00-2.401 0c.031-6.149.013-12.297.01-18.446zm18.037-.005c.792.026 1.586.025 2.38.001-.017 2.598.005 5.198-.011 7.798 3.172.025 6.344 0 9.516.012-.024-2.602.003-5.207-.013-7.811a43.88 43.88 0 002.379.005c-.003 6.148-.023 12.296.009 18.445-.8-.019-1.6-.02-2.4 0 .041-2.863-.002-5.73.023-8.592-3.171.018-6.342.006-9.512.004.017 2.863-.019 5.728.018 8.591-.8-.023-1.6-.025-2.398 0 .03-6.152.012-12.302.009-18.453z" fill="#0091FF"/><path d="M36.955 34.866l.352.024c.245.569.185 1.198.19 1.803-.002 3.384-.004 6.766 0 10.15.016.417-.158.805-.318 1.179-.568 1.27-1.417 2.39-2.324 3.429-.803.768-1.529 1.803-2.688 2.002-1.058.158-1.795-.985-1.815-1.937.003-1.452-.024-2.908.016-4.359.325-2.063 1.119-4.093 2.468-5.695 1.272-1.629 2.423-3.36 3.373-5.202.253-.463.461-.95.746-1.394z" fill="#4BD4FF"/><path d="M115.339 41.48c2.685 0 5.377-.06 8.059.029-.024.773.011 1.546-.024 2.317-2.669.052-5.337 0-8.006.027-.069-.79-.026-1.584-.029-2.374z" fill="#fff"/><defs><linearGradient id="paint0_linear" x1="-.182" y1="25.926" x2="38.426" y2="25.926" gradientUnits="userSpaceOnUse"><stop stop-color="#0091FF"/><stop offset="1" stop-color="#4BD4FF"/></linearGradient></defs></svg>